<svg xmlns="http://www.w3.org/2000/svg" viewBox="0 0 626.13 590.3"><defs><style>.cls-1,.cls-2{fill:#1c1c1c;}.cls-2{opacity:0.4;}.cls-3{fill:#999;}.cls-10,.cls-4{fill:#666;}.cls-5,.cls-9{fill:none;}.cls-11,.cls-5{stroke:#1c1c1c;}.cls-11,.cls-5,.cls-9{stroke-linecap:round;stroke-linejoin:round;stroke-width:6px;}.cls-6{opacity:0.2;}.cls-7{opacity:0.99;}.cls-11,.cls-8{fill:#fff;}.cls-9{stroke:#999;}.cls-10{stroke:#666;stroke-miterlimit:10;stroke-width:3px;}</style></defs><title>アートボード 2 のコピー 2</title><g id="レイヤー_11" data-name="レイヤー 11"><path class="cls-1" d="M132.87,577.22a4,4,0,0,1-.84-.09c-1.26-.25-1.9-.38-29.67-28.06C89,535.7,75.57,522.2,75.43,522.06a3.16,3.16,0,0,1-.51-.69C72.11,516.13,6.09,393,4.11,388.37a12.93,12.93,0,0,1,.12-10.76,3,3,0,0,1,1.93-1.48,2.82,2.82,0,0,1,.71-.09,3,3,0,0,1,1.68.52l40.07,27a2.88,2.88,0,0,1,1,1.08l44.6,84.22,89.1-4.69h.15a3,3,0,0,1,1.21.26c.33.15,33.48,14.77,66.25,30.17,67.86,31.88,68,35.76,68.14,38.59a10.27,10.27,0,0,1-5.71,9.94,15.61,15.61,0,0,1-5.38,1.63c-4.8,1.26-24,2.79-116.39,7.63-17.17.9-30.73,1.61-32.91,1.82-4.43.44-7.63.75-10.69.75h0a54.35,54.35,0,0,1-8.63-.76,18.1,18.1,0,0,1-2.18-.47C136.39,575.88,134.81,577.22,132.87,577.22Z"/><path class="cls-1" d="M6.87,379l40.07,27L92.43,492l91-4.78S315.72,545.52,316,553.34s-8.47,8.47-8.47,8.47c-2.61,2.28-141.42,8.69-149.21,9.45-4.55.44-7.53.73-10.4.73a51,51,0,0,1-8.17-.72c-4.57-.71-6.77-3-7.71-4.4l2.5,4.72s-.3,2.63-1.71,2.63l-.25,0C131,573.87,77.56,520,77.56,520S8.82,391.75,6.87,387.19a9.82,9.82,0,0,1,0-8.15m0-6a6.2,6.2,0,0,0-1.42.17,6,6,0,0,0-3.85,3,15.86,15.86,0,0,0-.25,13.38c2,4.67,63.88,120.09,70.93,133.24a6,6,0,0,0,1,1.38c.14.14,13.53,13.65,27,27,28.4,28.32,28.83,28.4,31.2,28.87a6.78,6.78,0,0,0,1.42.15,7.12,7.12,0,0,0,5.86-3l.14,0A57.69,57.69,0,0,0,148,578c3.21,0,6.47-.32,11-.76,2.11-.21,15.64-.91,32.77-1.81,21.25-1.12,50.36-2.64,73.76-4.06,30.4-1.84,39.8-2.69,43.41-3.66,5.81-.77,13.55-5.1,13.16-14.61-.16-3.8-3.13-6.4-8.55-9.88-3.6-2.32-8.82-5.28-15.5-8.81-11.1-5.85-26.51-13.42-45.82-22.49-32.79-15.41-66-30.05-66.31-30.19a5.9,5.9,0,0,0-2.42-.51h-.31L95.94,485.8l-43.7-82.52a6,6,0,0,0-1.94-2.17l-40.08-27a6,6,0,0,0-3.35-1Z"/><polygon class="cls-2" points="243.39 556.49 154.47 560.93 103.52 514.7 183.45 510.44 243.39 556.49"/><path class="cls-2" d="M220.26,530.37c1.3,1.63,12.05,10.1,12.05,10.1l30.63-.75L240.3,523Z"/><path class="cls-3" d="M92.41,492l91-4.78S315.72,545.52,316,553.34s-8.47,8.47-8.47,8.47c-2.61,2.28-141.42,8.69-149.21,9.45-8.47.83-11.48,1.11-18.57,0-6.68-1-8.31-5.48-8.31-5.48Z"/><polygon class="cls-4" points="232.94 545.11 144.02 549.55 93.07 503.33 173 499.07 232.94 545.11"/><path class="cls-4" d="M220.26,530.37c1.3,1.63,12.05,10.1,12.05,10.1l30.63-.75L240.3,523Z"/><path class="cls-4" d="M132.87,577.22a4,4,0,0,1-.84-.09c-1.26-.25-1.9-.38-29.67-28.06C89,535.7,75.57,522.2,75.43,522.06a3.16,3.16,0,0,1-.51-.69C72.11,516.13,6.09,393,4.11,388.37a12.93,12.93,0,0,1,.12-10.76,3,3,0,0,1,1.93-1.48,2.82,2.82,0,0,1,.71-.09,3,3,0,0,1,1.67.52l40.08,27a2.88,2.88,0,0,1,1,1.08l87.64,165.5a3,3,0,0,1,.33,1.74C137.21,575.09,135.32,577.22,132.87,577.22Z"/><path class="cls-1" d="M6.87,379l40.07,27,87.64,165.51s-.3,2.63-1.71,2.63l-.25,0C131,573.87,77.56,520,77.56,520S8.82,391.75,6.87,387.19a9.82,9.82,0,0,1,0-8.15m0-6a6.2,6.2,0,0,0-1.42.17,6,6,0,0,0-3.85,3,15.86,15.86,0,0,0-.25,13.38c2,4.67,63.88,120.09,70.93,133.24a6,6,0,0,0,1,1.38c.14.14,13.53,13.65,27,27,28.4,28.32,28.83,28.4,31.2,28.88a7.59,7.59,0,0,0,1.42.14c4.06,0,7.14-3.21,7.67-8a6,6,0,0,0-.66-3.47L52.24,403.28a6,6,0,0,0-1.94-2.17l-40.08-27a6,6,0,0,0-3.35-1Z"/><path class="cls-5" d="M134.6,563.77q48.12-2.43,96.23-5.22,42.61-2.46,85.21-5.21"/><path class="cls-6" d="M204.62,536.94a99.16,99.16,0,0,0,26.93,11.3c17.4,4.39,43.31,5.75,45.62-1.31,2.38-7.29-19.26-27.27-42.57-25.63C218.68,522.43,208,533.2,204.62,536.94Z"/><path class="cls-1" d="M387.31,571.45a3.29,3.29,0,0,1-.54-.05c-4.92-.91-12.82-2.48-22.51-4.81-.61-.15-1.33-.29-2.18-.46a82.3,82.3,0,0,1-12.84-3.45c-3.05-1.09-6.09-2.33-9-3.52-10.5-4.27-21.36-8.68-37.58-9-1.26,0-4.58-.29-8.1-.58-2.92-.24-6.24-.51-7.19-.53-14-.29-19.23-3.41-25.9-7.36a82,82,0,0,0-23.39-9.88c-7.4-2-11.42-3-14.64-3a13.11,13.11,0,0,0-2,.15c-4.85.81-8.59,3.06-12.2,5.25-3.93,2.37-7.64,4.61-12.2,4.61a13.63,13.63,0,0,1-3.57-.47c-2.14-.57-7.19-2.34-8-6.54a7.64,7.64,0,0,1,1-5c.07-.13.15-.3.22-.46a5.67,5.67,0,0,1-3.12-2.4c-1.48-2.48-.9-5.92,1.73-10.22v-.05c.11-.56.27-1.37.41-2.18-1.1.73-2.39,1.64-3.6,2.5-.87.61-1.61,1.16-2.26,1.63-2.64,1.93-4.23,3.09-6.52,3.09a6,6,0,0,1-1-.08,6.29,6.29,0,0,1-3-1.34,12.83,12.83,0,0,0-2.59-1.5c-.77-.35-1.41-.6-2-.83a12,12,0,0,1-4.4-2.52c-1.32-1.23-2.68-2.49-2.7-4.57,0-3.62,3.7-4.49,6.7-5.2,3.17-.75,7.12-1.67,9.68-4.61a22.93,22.93,0,0,0,4.27-8.38c1.26-3.73,2.57-7.58,7-9.55a13.11,13.11,0,0,1,5.44-1.05c.79,0,1.52,0,2.24.09.56,0,1.11.07,1.64.07,1.37,0,1.6-.28,1.77-.48a.63.63,0,0,0,.08-.11,5.34,5.34,0,0,0,0-.55,9.47,9.47,0,0,1,.72-3.56c1.91-4.53,6.3-5.76,11-7,3.85-1.08,8.23-2.29,12.62-5.5a8,8,0,0,0,2-2.16c.81-1.17,2-2.94,4.75-3h.39c7.72,0,12.46,3.23,17.95,7A79.34,79.34,0,0,0,258,471c15.1,6.94,36.09,12.07,54.78,13.39,8.52.6,15.25,1.08,20.83,1.08a49.41,49.41,0,0,0,16.86-2.45c.89-.3,1.73-.61,2.53-.91,2.68-1,5-1.85,7.35-1.86,1.95-14.14,2-23.71,2-34.77a458.89,458.89,0,0,1,2.79-52.24c1.24-11.8,2.38-20.29,6.74-30.41,3.28-7.61,6.77-12.46,11.19-18.6,2.77-3.85,5.91-8.21,9.66-14.17a222.2,222.2,0,0,0,11.34-20.32l-.26-.25c-3.25-3.21-5.21-5.14-5.24-8.54,0-1.46.24-2.71,1.77-6.22a59.07,59.07,0,0,1,4.1-8.31,83.39,83.39,0,0,0,4.82-9.32c1.07-2.31,2.28-4.92,3.88-8A183.66,183.66,0,0,1,429.54,244c-1.86-14.45-4.17-24.92-5.86-32.62-.47-2.13-.89-4-1.23-5.74a42,42,0,0,1-6.73-3.21c-14.85-8.82-19.84-24.47-23.84-37l-.29-.91c-.8-2.52-1.51-5.15-2.1-7.85a4.32,4.32,0,0,1-2.16-1.2,4.14,4.14,0,0,1-.56-.76c-4.24-3.26-9.45-13.06-7.2-23.24a23.3,23.3,0,0,1,6.79-11.85l0-1.29c-.1-2.88-.2-6-.3-9.59,0-1.14-.06-2.23-.08-3.3a29.84,29.84,0,0,1-6.69-10.75c-5.88-16.31,4.89-33.5,14.4-48.66a108.3,108.3,0,0,1,24.12-27.25c7.8-6.22,13.81-10.37,17.81-10.37a4.94,4.94,0,0,1,2.58.68,62.29,62.29,0,0,1,14.45-4,95.84,95.84,0,0,1,9.87-1A55.46,55.46,0,0,1,471.81,3l1.71,0a63.31,63.31,0,0,1,29.18,7c11.85,4.57,21,11.38,27.13,20.22l.46.64c1.77,2.41,6.45,8.82,13.11,23.22,2.83,6.12,4.42,13.17,5,22.19.25,3.81,0,7-1.34,14.18-2.34,13.09-3.67,20.22-6,26.57-.51,1.38-1.08,2.8-1.71,4.25l.25.44c.92,1.14,1.34,2.81,1.85,5.09.07.32.16.73.24,1.07,2.08,1.39,5.14,4.72,4.88,12.16a13.18,13.18,0,0,1-3.67,9.54,13.56,13.56,0,0,1-6,3.58,44,44,0,0,1-8,8.82,15.78,15.78,0,0,1-10.21,3.6,14.1,14.1,0,0,1-2.61-.23,4.61,4.61,0,0,1-1.22.51c-.49,2.07-1,4.52-1.54,7.28a3,3,0,0,1,.41.82,141,141,0,0,0,19.34,39.78l2.2,3c4.73,6.44,9.63,13.11,11.56,23.58,1.66,9,.46,18.63-1.05,22.6l5.24,6.73c7.81,10,19.6,25.17,31,50.79,9.19,20.65,13.09,36.77,25,118.73,7.51,51.68,10,73,11.43,85.79A216.22,216.22,0,0,0,623,553a3,3,0,0,1-2.74,3.63L387.5,571.44Z"/><path class="cls-1" d="M473.53,6a60.33,60.33,0,0,1,27.94,6.77c10.32,4,19.6,10.14,25.9,19.2,1.21,1.73,6,7.61,13.31,23.4,3.08,6.66,4.26,13.86,4.72,21.12.22,3.42,0,6.36-1.3,13.47-2.4,13.41-3.68,20.1-5.87,26.06-.55,1.5-1.17,3-1.85,4.54-.07.41-.16.86-.28,1.33a7.71,7.71,0,0,1,1,1.57c1.2,1,1.58,6.41,2.28,6.57,1.47.71,4.46,3,4.19,10a10.08,10.08,0,0,1-8.47,10.42,40.34,40.34,0,0,1-8.1,9.23,12.58,12.58,0,0,1-8.3,2.92,7.06,7.06,0,0,1-3.26-.59,3.05,3.05,0,0,1-1.36,1,1.53,1.53,0,0,1-.36,0,1.89,1.89,0,0,1-.94-.26l-.29.25a127.34,127.34,0,0,0-3.42,18.84c.56-2.67,1.2-5,1.81-7a142.6,142.6,0,0,0,19.76,40.62c5.23,7.34,11.15,14,13.25,25.41s-.68,21.72-1.3,21.72h0c-.86-.05-.54-20.41-1.31-20.42h0c-.62,0,.18,13.69-3.69,14.77a1.64,1.64,0,0,1-.32,0c3.47,4.31,7.23,9.14,11.4,14.5,8.33,10.7,19.6,25.39,30.62,50.17,8.85,19.89,12.81,35.62,24.76,117.94,14.58,100.36,10.2,87.32,16,114L387.31,568.45c-2.83-.52-11.29-2.11-22.35-4.78a98.79,98.79,0,0,1-14.71-3.81c-13.67-4.91-26.08-12.28-47.56-12.71-2.29,0-13.17-1.06-15.29-1.11-23.92-.5-20.42-9.57-48.57-17.13-7.33-2-11.75-3.13-15.42-3.13a15.73,15.73,0,0,0-2.5.19c-10.74,1.78-16.39,9.82-23.91,9.82a10.73,10.73,0,0,1-2.8-.37c-.55-.14-5.3-1.4-5.87-4.23-.46-2.31,2.16-4.13,1.31-6.19-.7-1.69-2.7-1.13-3.59-2.61s.1-4.58,2-7.56c.57-2.91,1.45-6.86.07-7.64a.77.77,0,0,0-.4-.1c-1.12,0-3.39,1.59-7.42,4.44s-5.36,4.17-7.05,4.17a3.69,3.69,0,0,1-.56,0c-1.52-.25-1.38-1.06-4.77-2.61-2.67-1.22-4-1.28-5.65-2.82-1-1-1.73-1.61-1.74-2.39,0-2.86,10.05-1.41,15.64-7.82,6-6.84,4.27-14.51,10.21-17.16a10.12,10.12,0,0,1,4.22-.79c1.36,0,2.67.16,3.88.16a4.87,4.87,0,0,0,4.06-1.54c1.38-1.63.35-2.72,1.3-5,2.58-6.13,12.49-3.91,22.59-11.29,3-2.22,2.86-4.53,5-4.56h.35c11.13,0,15.11,7.56,29,13.93,14.84,6.82,35.79,12.24,55.82,13.65,8.66.61,15.35,1.09,21,1.09a52.37,52.37,0,0,0,17.84-2.61c3.61-1.23,6.5-2.61,8.93-2.61a5,5,0,0,1,2.48.61q.22-1.41.42-2.88c4.22-30.33-.17-39.27,4.89-87.43,1.29-12.27,2.47-20.15,6.52-29.53,5.15-12,10.87-16.85,20.63-32.37a225.34,225.34,0,0,0,12.44-22.52l-.6-.61c-3.77-3.74-5.52-5.16-5.54-7.6,0-.88.1-1.73,1.52-5a55.31,55.31,0,0,1,3.91-7.93c3.54-5.75,5-10.21,8.79-17.49a185.16,185.16,0,0,1,16.83-25.69c-2.6-20.76-6.17-33.74-7.61-41.47a39.92,39.92,0,0,1-7.8-3.53c-14.23-8.45-18.91-24-22.81-36.27A88.52,88.52,0,0,1,391.8,153c-.06.53-.65.8-1.24.8s-1.31-.33-1.27-1c-3.15-1.52-8.93-10.94-6.79-20.66a20.91,20.91,0,0,1,6.9-11.2c-.11-3.63-.25-7.52-.38-12.25,0-1.61-.08-3.13-.11-4.6-2.33-1.81-5.24-5.94-6.84-10.39-5.38-14.93,4.81-31.19,14.12-46.05a105,105,0,0,1,23.45-26.49c3.74-3,12.17-9.72,15.94-9.72a1.85,1.85,0,0,1,1.22.38,1.71,1.71,0,0,1,.56,1,54.51,54.51,0,0,1,15.73-4.66,87.55,87.55,0,0,1,9.77-1,51.39,51.39,0,0,1,9-1.05l1.64,0M396,105.44a16.58,16.58,0,0,0,.66-2.23,9.08,9.08,0,0,0,.27-2.16c-.32,1.44-.64,2.89-.93,4.39M473.53,0h0l-1.79,0A58,58,0,0,0,462.1,1.1a94.78,94.78,0,0,0-10,1,67.43,67.43,0,0,0-13.93,3.66,8.14,8.14,0,0,0-2.63-.42c-4.91,0-10.94,4.05-19.68,11a111.35,111.35,0,0,0-24.8,28c-9.86,15.74-21,33.58-14.67,51.26a33.29,33.29,0,0,0,6.54,11c0,.7,0,1.41,0,2.13.1,3.49.2,6.52.29,9.33v.27a26,26,0,0,0-6.67,12.4c-2.37,10.7,2.66,21.49,7.83,25.88a7.6,7.6,0,0,0,.67.83,7.1,7.1,0,0,0,1.77,1.35c.53,2.24,1.14,4.43,1.81,6.55l.29.9c3.94,12.37,9.33,29.3,25.17,38.71a44.42,44.42,0,0,0,5.65,2.82c.27,1.3.58,2.69.91,4.19,1.63,7.43,3.84,17.45,5.66,31.15a184.4,184.4,0,0,0-15.88,24.6c-1.64,3.12-2.86,5.76-3.94,8.09a81.09,81.09,0,0,1-4.65,9,61.58,61.58,0,0,0-4.3,8.68c-1.57,3.59-2,5.34-2,7.45,0,4,2.08,6.57,4.85,9.37-3.11,6.17-6.54,12.24-10.23,18.11s-6.81,10.21-9.56,14c-4.52,6.29-8.1,11.26-11.5,19.16-4.53,10.49-5.75,19.58-7,31.29a462.33,462.33,0,0,0-2.8,52.54c0,10.76-.09,19.4-1.71,32.05a36.61,36.61,0,0,0-5.73,1.78c-.8.29-1.62.6-2.46.89-4.73,1.62-9.33,2.28-15.89,2.28-5.48,0-12.16-.48-20.62-1.07-18.36-1.3-38.95-6.33-53.74-13.12a76.79,76.79,0,0,1-11.82-7c-5.66-3.87-11-7.51-19.65-7.51h-.44a8.59,8.59,0,0,0-7.16,4.27,5.14,5.14,0,0,1-1.28,1.44c-4,2.89-7.88,4-11.67,5-4.9,1.36-10.45,2.91-12.92,8.78a11.7,11.7,0,0,0-.8,2.82l-.5,0c-.72,0-1.53-.09-2.41-.09a16.1,16.1,0,0,0-6.67,1.31c-5.6,2.51-7.26,7.4-8.59,11.33-.89,2.63-1.73,5.12-3.69,7.37s-5.21,3-8.11,3.66a24.71,24.71,0,0,0-4.16,1.23,7.41,7.41,0,0,0-4.85,6.92c0,3.37,2.21,5.39,3.66,6.73a14.72,14.72,0,0,0,5.38,3.13c.61.23,1.17.45,1.85.76a9.44,9.44,0,0,1,2.06,1.19,9.24,9.24,0,0,0,4.25,1.88,9.83,9.83,0,0,0,1.52.12,11,11,0,0,0,6.55-2.42,9.08,9.08,0,0,0,1.1,6.19,7.87,7.87,0,0,0,1.88,2.15,9.25,9.25,0,0,0-.33,4.75c.83,4.13,4.55,7.36,10.21,8.85a17,17,0,0,0,4.34.57c5.4,0,9.64-2.56,13.75-5,3.53-2.13,6.86-4.15,11.14-4.86a9.21,9.21,0,0,1,1.52-.11c2.84,0,6.91,1.05,13.86,2.92a79.06,79.06,0,0,1,22.64,9.57c6.77,4,12.62,7.46,27.36,7.77.86,0,4.27.3,7,.52,4.31.35,7,.56,8.27.59,15.67.31,26.27,4.62,36.52,8.79,3,1.2,6,2.45,9.15,3.56a83.61,83.61,0,0,0,13.27,3.57c.83.17,1.54.31,2.06.43,7.62,1.84,15.67,3.56,22.66,4.85a6.7,6.7,0,0,0,1.09.1h.38l232.72-14.79a6,6,0,0,0,5.48-7.26,216.06,216.06,0,0,1-4.47-27.73C620,511.89,617.49,490.5,610,438.78c-12-82.32-15.9-98.57-25.22-119.52-11.55-25.95-23.47-41.27-31.37-51.41l-4.27-5.49c1.54-5.43,2.14-14.52.66-22.54-2-11.15-7.39-18.41-12.09-24.82-.73-1-1.46-2-2.17-3a138.07,138.07,0,0,1-18.93-38.93c0-.13-.08-.26-.13-.38.28-1.49.58-2.88.86-4.16.49,0,.95,0,1.37,0a18.6,18.6,0,0,0,12.11-4.28,46.17,46.17,0,0,0,8-8.59,16.71,16.71,0,0,0,6.26-4,16.07,16.07,0,0,0,4.52-11.59c.25-7.74-2.68-11.84-5.2-13.93a18.9,18.9,0,0,0-1.65-5.13c.42-1,.8-2,1.15-3,2.43-6.59,3.78-13.82,6.14-27.08,1.32-7.38,1.65-10.86,1.39-14.9-.6-9.41-2.28-16.8-5.27-23.26-6.78-14.66-11.59-21.25-13.4-23.73-.18-.24-.32-.43-.42-.58-6.48-9.31-16-16.46-28.37-21.25A66.3,66.3,0,0,0,473.53,0Z"/><g class="cls-7"><path class="cls-8" d="M334.39,531.37c-24.73,0-58.91-9.33-86.37-16.83-18.78-5.13-35-9.55-42.75-9.55-2.28,0-2.89.4-2.89.41a45.53,45.53,0,0,0-7.08,7.05,53.5,53.5,0,0,0-3,4.71c-1.36,2.35-2.27,3.9-4.33,3.9a3.37,3.37,0,0,1-1.17-.22c-2.77-1.1-2.19-4.05-1.57-7.17.11-.56.27-1.38.4-2.19-1.09.73-2.38,1.64-3.59,2.5-.87.61-1.61,1.16-2.26,1.63-2.64,1.93-4.23,3.09-6.52,3.09a6,6,0,0,1-1-.08,6.29,6.29,0,0,1-3-1.34,12.83,12.83,0,0,0-2.59-1.5c-.77-.35-1.41-.6-2-.83a12,12,0,0,1-4.4-2.52c-1.32-1.23-2.68-2.49-2.7-4.57,0-3.62,3.7-4.49,6.7-5.2,3.17-.75,7.12-1.67,9.68-4.61a22.93,22.93,0,0,0,4.27-8.38c1.26-3.73,2.57-7.58,7-9.55a13.11,13.11,0,0,1,5.44-1.05c.79,0,1.52,0,2.24.09.56,0,1.11.07,1.64.07,1.37,0,1.6-.28,1.77-.48a.63.63,0,0,0,.08-.11,5.34,5.34,0,0,0,0-.55,9.47,9.47,0,0,1,.72-3.56c1.91-4.53,6.3-5.76,11-7,3.85-1.08,8.23-2.29,12.62-5.5a8,8,0,0,0,2-2.16c.81-1.17,2-2.94,4.75-3h.39c7.72,0,12.46,3.23,17.95,7A79.34,79.34,0,0,0,258,471c15.1,6.94,36.08,12.07,54.78,13.39,8.52.6,15.25,1.08,20.83,1.08a49.41,49.41,0,0,0,16.86-2.45c.89-.3,1.74-.61,2.54-.91,2.69-1,5-1.86,7.38-1.86a8.08,8.08,0,0,1,4.08,1.06c4.7,2.74,6.19,9.86,6.65,13.86,1.07,9.14-.94,21.29-7.84,27.84-5.89,5.6-15.34,8.32-28.89,8.32Z"/><path class="cls-1" d="M227.78,459.84c11.13,0,15.11,7.56,29,13.93,14.84,6.82,35.79,12.24,55.82,13.65,8.66.61,15.35,1.09,21,1.09a52.37,52.37,0,0,0,17.84-2.61c3.61-1.24,6.5-2.61,8.94-2.61A5,5,0,0,1,363,484c7,4.05,8.11,27.57-1.74,36.92-5.68,5.39-15.19,7.5-26.83,7.5-41.22,0-109.23-26.38-129.12-26.38-2.23,0-3.86.33-4.77,1.07a47.16,47.16,0,0,0-7.61,7.6c-2.79,3.79-4.27,7.4-4.93,7.4h-.06c-1.1-.44,2.41-9.62.22-10.86a.77.77,0,0,0-.4-.1c-1.12,0-3.39,1.59-7.42,4.44s-5.36,4.17-7.05,4.17a3.69,3.69,0,0,1-.56,0c-1.52-.25-1.38-1.06-4.77-2.61-2.67-1.22-4-1.28-5.65-2.82-1-1-1.73-1.61-1.74-2.39,0-2.86,10.05-1.41,15.64-7.82,6-6.84,4.27-14.51,10.21-17.16a10.12,10.12,0,0,1,4.22-.79c1.36,0,2.67.16,3.88.16a4.87,4.87,0,0,0,4.06-1.54c1.38-1.63.35-2.72,1.3-5,2.58-6.13,12.49-3.91,22.59-11.29,3-2.22,2.86-4.53,5-4.56h.35m0-6h-.44a8.59,8.59,0,0,0-7.16,4.27,5.14,5.14,0,0,1-1.28,1.44c-4,2.89-7.88,4-11.67,5-4.9,1.36-10.45,2.91-12.92,8.78a11.7,11.7,0,0,0-.8,2.82l-.5,0c-.72,0-1.53-.09-2.41-.09a16.1,16.1,0,0,0-6.67,1.31c-5.6,2.5-7.26,7.4-8.59,11.33-.89,2.63-1.73,5.12-3.69,7.37s-5.21,3-8.11,3.66a24.71,24.71,0,0,0-4.16,1.23,7.41,7.41,0,0,0-4.85,6.92c0,3.37,2.21,5.39,3.66,6.73a14.72,14.72,0,0,0,5.38,3.13c.61.23,1.17.45,1.85.76a9.44,9.44,0,0,1,2.06,1.19,9.24,9.24,0,0,0,4.25,1.88,9.83,9.83,0,0,0,1.52.12c3.27,0,5.49-1.62,8.29-3.67l.17-.12a6.35,6.35,0,0,0,4,5.71,6.07,6.07,0,0,0,2.27.44c3.79,0,5.46-2.86,6.93-5.39a47.39,47.39,0,0,1,2.82-4.43,42.14,42.14,0,0,1,6.14-6.17,9.35,9.35,0,0,1,1.42-.08c7.35,0,24.16,4.59,42,9.45,27.63,7.54,62,16.93,87.15,16.93,14.35,0,24.48-3,31-9.15,5.11-4.85,10.46-15.71,8.75-30.36-.53-4.55-2.29-12.7-8.13-16.1a10.92,10.92,0,0,0-5.58-1.47c-2.9,0-5.58,1-8.42,2-.8.29-1.63.6-2.47.89-4.73,1.62-9.33,2.28-15.89,2.28-5.48,0-12.16-.48-20.62-1.07-18.36-1.3-38.95-6.33-53.74-13.12a76.79,76.79,0,0,1-11.82-7c-5.66-3.87-11-7.51-19.65-7.51Z"/></g><path class="cls-8" d="M515,575.57c-31.78,0-63.7-1.88-87.59-5.15-12.87-1.77-23-3.88-30.24-6.27-9.13-3-13.5-6.52-13.75-11-2.19-39.26.21-59.22,2.76-80.35,1.79-14.81,3.64-30.13,3.77-53v-.64c0-8.72.13-25,8.41-43.29a42.73,42.73,0,0,1,5-8.85,35.87,35.87,0,0,0,4.23-7.45c4.84-10.78,5.67-19.11,6.47-27.16.86-8.71,1.68-16.93,7.47-26.55,3.2-5.33,6.21-8.23,11.19-13.05l1.37-1.33a531.73,531.73,0,0,0,40.11-43.33c11.9-14.13,17.33-20.58,28-20.75h.37c15.56,0,26.54,14.11,48.42,42.21,7.81,10,19.6,25.18,31,50.8,9.19,20.65,13.09,36.77,25,118.73,7.51,51.68,10,73,11.43,85.79A216.22,216.22,0,0,0,623,553a7.9,7.9,0,0,1-1.75,6.78Z"/><path class="cls-1" d="M502.6,230.47c14.1,0,24.8,13.76,46.06,41.06,8.33,10.7,19.6,25.39,30.62,50.17,8.85,19.89,12.81,35.62,24.76,117.94,14.58,100.36,10.2,87.32,16,114a4.6,4.6,0,0,1-.28,2.84c-.63,1.47,1.23,3.51,2.65,4.24l-1.31-.33a3,3,0,0,0,4.11-1.4,10.61,10.61,0,0,0,.69-6.62,216.06,216.06,0,0,1-4.47-27.73C620,511.89,617.49,490.5,610,438.78c-12-82.32-15.9-98.57-25.22-119.52-11.55-25.95-23.47-41.27-31.37-51.41-11-14.08-18.87-24.26-26.28-31.4-8.57-8.29-16.13-12-24.51-12h-.42c-12,.19-18.1,7.42-30.23,21.82a530.37,530.37,0,0,1-39.9,43.11l-1.37,1.33c-5,4.81-8.26,8-11.67,13.65-6.14,10.21-7,19.15-7.89,27.8-.77,7.82-1.58,15.9-6.22,26.23a32.69,32.69,0,0,1-3.93,6.93,47,47,0,0,0-5.34,9.36c-8.54,18.93-8.62,35.58-8.67,44.52v.63c-.13,22.66-2,37.89-3.75,52.63-2.56,21.26-5,41.34-2.78,80.87.43,7.66,9.22,11.46,15.8,13.64,7.38,2.46,17.73,4.61,30.78,6.4,24,3.29,56.09,5.18,88,5.18v-6c-61.74,0-127.89-7.16-128.59-19.55-3.75-67.33,6.21-78.47,6.54-133.13.05-8.2-.07-24.49,8.15-42.72,4.19-9.28,5.28-7.38,9.28-16.3,10.33-23,3.14-35.73,13.77-53.39,3.28-5.45,6.35-8.22,12.08-13.77,46.86-45.45,49.94-63,66-63.24h.33"/><path class="cls-8" d="M409.22,306.07a223.62,223.62,0,0,1-13.9,25.62c-9.76,15.52-15.48,20.4-20.63,32.37-4.05,9.38-5.23,17.26-6.52,29.53-5.06,48.16-.67,57.1-4.89,87.43-4.47,32.19-11.88,39.79-5.54,48.32,10.42,14,45.58,13.95,66.9-.87,60.56-42.09,23.84-218.76-10-223.06A11.81,11.81,0,0,0,409.22,306.07Z"/><path class="cls-8" d="M415.68,355.55a3.32,3.32,0,0,1-1.08-.19c-2.72-1-2.3-3.6-1.72-7.21a110.4,110.4,0,0,0,1.59-19.9c0-4.06-.25-6.26-1.41-8.56-1-2-3.31-4.31-8-9l-1.18-1.16c-3.25-3.21-5.21-5.14-5.24-8.54,0-1.46.24-2.71,1.77-6.22a59.07,59.07,0,0,1,4.1-8.31,83.39,83.39,0,0,0,4.82-9.32c1.07-2.31,2.28-4.92,3.88-8A184.93,184.93,0,0,1,430.3,243a3,3,0,0,1,2.37-1.16,2.58,2.58,0,0,1,.68.08,3,3,0,0,1,2.26,2.32,138.63,138.63,0,0,1,2.77,37.48c-.68,9.49-1.13,15.76-5.95,20.67-.79.8-1.61,1.49-2.4,2.15-2,1.65-3.2,2.74-3.53,4.46a7.49,7.49,0,0,0,1.09,4.72l.17.33c5.78,11.57-3.55,31.33-7.27,37.34-1.66,2.69-2.92,4.14-4.81,4.14Z"/><path class="cls-1" d="M432.67,244.86a137.8,137.8,0,0,1,2.72,36.66c-.69,9.59-1.14,14.75-5.1,18.79-2.5,2.55-6,4.23-6.74,8.14-.6,3.16,1,5.82,1.52,6.95,6.05,12.1-7.59,37.15-9.39,37.15h-.05c-1-.36,2-8.54,1.84-24.32,0-4.34-.28-7-1.73-9.88-1.24-2.44-3.7-4.92-8.58-9.78-3.77-3.74-5.52-5.16-5.54-7.6,0-.88.1-1.73,1.52-5a55.31,55.31,0,0,1,3.91-7.93c3.54-5.75,5-10.21,8.79-17.49a185.16,185.16,0,0,1,16.83-25.69m0-6a6,6,0,0,0-4.74,2.32,187.84,187.84,0,0,0-17.4,26.59c-1.64,3.13-2.86,5.77-3.94,8.1a81.09,81.09,0,0,1-4.65,9,61.58,61.58,0,0,0-4.3,8.68c-1.57,3.59-2,5.34-2,7.45,0,4.64,2.73,7.29,6.14,10.65l1.16,1.15c4,4,6.64,6.6,7.46,8.23s1.05,3.17,1.09,7.23a107.88,107.88,0,0,1-1.55,19.39c-.23,1.4-.39,2.41-.46,3.3-.42,5.15,3,6.82,4.11,7.21a6.09,6.09,0,0,0,2.11.37c3.92,0,6.08-3.49,7.37-5.58,4.23-6.84,13.81-27.4,7.39-40.25l-.18-.35a5,5,0,0,1-.81-2.79c.13-.67.9-1.38,2.5-2.72a32.92,32.92,0,0,0,2.62-2.35c5.59-5.69,6.1-12.77,6.81-22.56a141.84,141.84,0,0,0-2.83-38.29A6,6,0,0,0,434,239a5.82,5.82,0,0,0-1.37-.16Z"/><path class="cls-1" d="M402.12,240.33a18.89,18.89,0,0,1-3.92-.4c-7.52-1.55-11.47-7.06-12.77-8.86-2.63-3.66-4.34-8.26-4.75-19.88-.34-9.41.45-16.23,1.54-25.67.27-2.3.56-4.77.85-7.49,0-.11,1.22-11.25,1.95-21.25.38-5.17.59-9.92.65-14.54.11-9.94-.1-16.25-.36-24.25-.09-2.81-.19-5.84-.29-9.33-.9-32.48,1.32-38.3,4.31-42.52,3.91-5.52,12.42-13.53,16.88-13.53a2.9,2.9,0,0,1,1.65.46c2.8,1.86.8,7-2.82,16.43-3.72,9.62-9.34,24.16-12.17,42.11a103,103,0,0,0-1.36,16.2,262.68,262.68,0,0,1-2.11,28.72c-.09.78-.19,1.63-.3,2.54-.76,6.3-1.9,15.83-2.3,28.22-.15,4.92.12,11.09.65,23.38.42,9.61.76,12.42,2.89,15.8.19.31,4.71,7.38,12.81,8.89a16.9,16.9,0,0,0,3.11.29,21.54,21.54,0,0,0,6-1,5.06,5.06,0,0,1,1.22-.27,1.07,1.07,0,0,1,1.07.78,1.13,1.13,0,0,1-.23,1C413.49,237.35,408.43,240.33,402.12,240.33Z"/><path class="cls-1" d="M406.21,53.61a2,2,0,0,1,1.1.29c4.6,3.06-10.11,23.86-15.43,57.56-2.52,16,0,15.3-3.47,45-.71,6.15-2.16,16.61-2.61,30.84-.15,5,.12,11.13.65,23.46.41,9.37.74,12.61,3.05,16.29.28.46,5,7.76,13.46,9.34a18.56,18.56,0,0,0,3.3.3,29.06,29.06,0,0,0,7.24-1.22c.06,0,.1,0,.1,0,.12.41-4.88,3.85-11.48,3.85a17.93,17.93,0,0,1-3.72-.38c-7-1.44-10.78-6.55-12.16-8.47-2.47-3.44-4.15-7.81-4.56-19.33s.86-18.93,2.39-33c0,0,1.21-11.15,1.95-21.29.41-5.62.6-10.36.65-14.6.15-13.39-.27-20-.65-33.61-.91-32.76,1.38-38,4.13-41.92,4.24-6,12.33-13.11,16.06-13.11m0-2c-2.27,0-5.34,1.61-9.13,4.77a52.18,52.18,0,0,0-8.57,9.18c-3.1,4.38-5.4,10.34-4.49,43.13.1,3.49.2,6.52.29,9.33.26,8,.47,14.29.36,24.21-.06,4.59-.27,9.33-.64,14.48-.73,9.93-1.9,20.76-1.95,21.21h0c-.3,2.72-.58,5.19-.85,7.48-1.1,9.48-1.89,16.34-1.55,25.82.42,11.88,2.2,16.62,4.93,20.43,1.36,1.89,5.48,7.63,13.39,9.26a20.21,20.21,0,0,0,4.12.42c6.75,0,12.05-3.22,13-4.5a2.15,2.15,0,0,0,.39-1.89,2.08,2.08,0,0,0-2-1.51,5.48,5.48,0,0,0-1.49.31,20.4,20.4,0,0,1-5.75.91,15.81,15.81,0,0,1-2.93-.27c-7.66-1.44-12-8.15-12.14-8.44-2-3.18-2.33-5.92-2.74-15.31-.53-12.26-.8-18.42-.65-23.31.39-12.33,1.54-21.83,2.29-28.11.11-.92.22-1.78.31-2.56a267.3,267.3,0,0,0,2.11-28.82,100.43,100.43,0,0,1,1.35-16.06c2.81-17.85,8.41-32.33,12.11-41.91,3.94-10.2,5.92-15.31,2.44-17.62a3.87,3.87,0,0,0-2.2-.63Z"/><path class="cls-4" d="M390.32,120.15a21,21,0,0,0-7.82,11.94c-2.41,10.92,5.2,21.48,7.82,20.85C392,152.53,393.4,146.89,390.32,120.15Z"/><path class="cls-8" d="M424.86,202.25c1.58,9.39,7.06,27.49,9.55,59.94.23,3,2.12,14.56-1.3,21.07-.65,1.24-2.84,2-4.13,4.56-1.73,3.38-2,8.2-.43,8.91,2.5,1.15,11.25-8.07,13.25-19.12.42-2.36,2.75-5.25,3-6,5.54-13.79,60.86-30.41,65.16-58.1.44-2.85-.33-2.07-1.09-10.64-2.71-30.65,8.39-50.43,5.65-51.69-2.44-1.13-12.2,15.81-21.94,28.23C475.25,201.6,441.15,203.77,424.86,202.25Z"/><path class="cls-6" d="M430,320.93c4.65.85,6.62-2.68,10.13-2.72,4.68,0,5.68,6.21,9.45,7.26,6.33,1.77,13.27-13.11,22.62-31.29,17.45-33.92,22-37.93,20.6-40.37-4.28-7.27-43.45,31.2-57.74,49-9.81,12.22-8.71,15.68-8.44,16.33C427.2,320.42,428.67,320.68,430,320.93Z"/><path class="cls-6" d="M477.88,344.51a285.47,285.47,0,0,1-9.78,59.94c-4.88,17.57-8.94,25.21-9.12,41.05-.23,20,6,23.89,2.61,36.49-5.85,21.41-28.85,28.08-26.07,35.19,1.88,4.81,14.3,6.58,22.81,2,7.23-3.93,10.56-11.9,15-35.18,6.08-32,6.52-46.92,6.52-46.92C480.47,415.42,480.56,384.1,477.88,344.51Z"/><path class="cls-8" d="M450.21,316.67a3,3,0,0,1-2.27-1.11,52.49,52.49,0,0,1-4-6,69,69,0,0,0-7.63-10.89c-1.37,1.56-3.33,4-4.77,5.88-5.95,7.58-7.31,9.06-9.48,9.06a3.21,3.21,0,0,1-2.67-1.41c-2-2.93.33-6.77,9.3-18.47,1.07-1.39,2.26-3,2.67-3.56.74-2.58,3.38-10.38,10.7-21.68a181.69,181.69,0,0,1,25.17-31c3.15-3.12,31.2-30.47,46.56-30.47a10.3,10.3,0,0,1,5.89,1.67c2.82,1.91,4,6.42,7.08,18.45,3.8,14.76,4.75,19.13,1.42,21.94a5.68,5.68,0,0,1-3.79,1.35h0a14.35,14.35,0,0,1-3.2-.49,19.1,19.1,0,0,0-4.35-.6h-.66c-4.17.21-8,2.44-14.61,8.55a128.12,128.12,0,0,0-12.93,14.43c-1.84,2.27-3.74,4.62-5.81,7A290.26,290.26,0,0,0,464,304c-5.86,8.41-8.8,12.64-13.66,12.64Z"/><path class="cls-1" d="M513.83,210a7.35,7.35,0,0,1,4.2,1.15c1.89,1.28,3.21,6.43,5.87,16.73,3.71,14.41,4.07,17.47,2.39,18.89a2.74,2.74,0,0,1-1.86.64c-1.76,0-4.09-1.09-7.55-1.09-.26,0-.53,0-.8,0-5,.24-9.37,2.74-16.51,9.34-7.42,6.85-12.33,14-19,21.72-20.38,23.79-24.32,36.27-30.25,36.27h-.08c-3.4-4.19-6.43-11.86-13.58-19a.23.23,0,0,0-.16-.06c-1.88,0-12.61,16-14.43,16a.23.23,0,0,1-.19-.09c-1.52-2.26,12-18,12.29-19.22,1-3.66,4-11.3,10.42-21.18a179.83,179.83,0,0,1,24.76-30.52c8.67-8.59,32.13-29.6,44.45-29.6m0-6c-6.76,0-15.65,4.17-27.18,12.77a219.22,219.22,0,0,0-21.49,18.57,183.63,183.63,0,0,0-25.57,31.52c-7.13,11-10,18.86-10.93,22-.5.7-1.49,2-2.31,3-2.08,2.72-4.68,6.1-6.72,9.16-2.25,3.36-5.65,8.44-2.69,12.82a6.23,6.23,0,0,0,5.16,2.73c3.82,0,6-2.78,11.84-10.21l2.4-3a82,82,0,0,1,5.07,7.74,57.14,57.14,0,0,0,4.2,6.34,6,6,0,0,0,4.55,2.22h.19c6.42,0,10.07-5.24,16.12-13.92a287.68,287.68,0,0,1,18.68-24.45c2.1-2.45,4-4.82,5.87-7.11a127.64,127.64,0,0,1,12.62-14.11c6.82-6.29,9.84-7.61,12.73-7.75h.51a16,16,0,0,1,3.68.53,17.27,17.27,0,0,0,3.87.56,8.79,8.79,0,0,0,5.73-2c4.92-4.16,3.34-10.25-.45-25-3.31-12.84-4.55-17.64-8.31-20.19a13.16,13.16,0,0,0-7.57-2.19Z"/><path class="cls-8" d="M538.32,569.74c-2.88,0-4.14-1.24-4.69-2.29-1.3-2.45.48-4.61,1.66-6,.54-.65,1.65-2,1.59-2.5,0,0-.18-1.15-4.24-2.75-13.08-5.17-32.16-17-39.47-22.2-3.15-2.23-5.91-4.49-8.35-6.48-5-4.07-8.91-7.28-12.38-7.28a5.83,5.83,0,0,0-1.54.21c-.38.09-.79.23-1.22.37a14,14,0,0,1-4.36.93,5.38,5.38,0,0,1-3.68-1.31c-3-2.67-2.11-8,0-11.84a15.6,15.6,0,0,1,5-5.27c.26-.18.49-.36.72-.53,4.31-3.37,5.36-9.63,6.05-13.77.85-5,.21-10-.3-13.94-.68-5.29-1.27-9.85,2.43-11.95a9,9,0,0,1,1.26-.57l.16-.06c-.06-.13-.14-.28-.25-.47-1.19-2.05-3.13-3.26-5-4.43a20.32,20.32,0,0,1-2.85-2c-3.21-2.83-5.83-8.45-.93-28.69a130.36,130.36,0,0,1,5-16.25c.87-2.38,1.7-4.63,2.52-7.37,3.25-10.77,2.84-16.83,2.35-23.85a78.35,78.35,0,0,1,2.18-27.47A91.46,91.46,0,0,1,483.35,341a116.42,116.42,0,0,0,4.72-15.75c1-4.28,1.65-7.49,2.15-10.07,1-5,1.55-8,3.69-11.86,4.91-8.87,14.39-15.38,28.18-19.35a2.92,2.92,0,0,1,.83-.12,2.64,2.64,0,0,1,.74.1c13.8,3.51,32.34,11.29,42.26,28.44,4.05,7,5.51,14.58,8.16,28.3,3.72,19.24,6,30.86,4.94,45.74-.88,12.72-3.68,21.06-6.39,29.12s-5.27,15.67-6,27.54a88.18,88.18,0,0,0,0,10.34,38,38,0,0,1-1,12.67c-.14.56-.29,1.17-.46,1.8-.85,3.26-2.42,9.34-.72,10.94a3.82,3.82,0,0,0,.71.48,8.59,8.59,0,0,1,2.94,2.58c1.72,2.44,2.21,5.62,1.48,9.75-.79,4.47-2.6,7.39-5.88,12.68l-.06.1c-5.54,8.93-6.51,10.61-6.4,11.84s.69,2,2.08,3.44a21.26,21.26,0,0,1,3,3.73c3.64,6,3.43,14.91-.56,24.53-3.81,9.16-11.43,19.31-19.88,21.33A16,16,0,0,1,538.32,569.74Z"/><path class="cls-1" d="M522.92,286.84c12.35,3.15,30.7,10.28,40.4,27,3.73,6.45,5.14,13.51,7.82,27.37,3.7,19.18,5.88,30.48,4.88,45-1.71,24.79-10.89,32.25-12.38,56.69-.7,11.68,1.17,13.69-1,22.48-1.15,4.7-3.72,12.44-.33,15.64,1.06,1,2.16,1.05,3.26,2.6.78,1.11,1.73,3.21,1,7.49-.7,3.94-2.25,6.43-5.54,11.73-6.2,10-7,11.42-6.84,13.69.34,3.93,3.37,4.91,5.53,8.47,7.63,12.5-6.46,38.47-18.57,41.37a13,13,0,0,1-2.84.37c-.94,0-1.77-.17-2-.69-.8-1.51,4-4.26,3.58-7.5-.35-2.95-4.81-4.67-6.19-5.21-12.52-4.94-31.19-16.45-38.77-21.83C485,524.45,479,517.2,472.44,517.2a9.2,9.2,0,0,0-2.3.3c-1.42.37-3.3,1.21-4.82,1.21a2.46,2.46,0,0,1-1.69-.55c-1.64-1.45-.84-5.46.65-8.15s3.48-3.79,4.89-4.89c5.22-4.08,6.4-11.11,7.16-15.63,1.92-11.41-3.08-21.66.65-23.79.87-.49,2.42-.66,2.94-1.95a3.88,3.88,0,0,0-.66-3.26c-2.29-3.94-6.39-5.33-8.47-7.17s-4.63-6.61,0-25.73c2.87-11.87,5.19-15.79,7.5-23.46,6.73-22.35-1.63-26.35,4.56-51.48,2.64-10.7,4.54-11.56,8.14-26.71,3-12.49,2.62-15.91,5.54-21.18,3.29-5.93,10.19-13.26,26.39-17.92m0-6a5.85,5.85,0,0,0-1.66.24c-14.58,4.19-24.66,11.18-30,20.78-2.36,4.26-3,7.63-4,12.74-.49,2.55-1.11,5.73-2.11,9.95A117.41,117.41,0,0,1,480.54,340,94.43,94.43,0,0,0,477,351.22a81.29,81.29,0,0,0-2.25,28.39c.46,6.73.86,12.54-2.23,22.79-.8,2.65-1.61,4.86-2.47,7.2A135.17,135.17,0,0,0,465,426.17c-4.25,17.57-3.71,26.74,1.87,31.65a23.8,23.8,0,0,0,3.25,2.3,25.78,25.78,0,0,1,2.31,1.55c-3.63,3.35-2.93,8.84-2.29,13.76.51,4,1.09,8.48.32,13.06-.66,3.91-1.56,9.26-4.95,11.91l-.63.47A18.46,18.46,0,0,0,459,507.1c-2.68,4.85-3.64,11.79.62,15.55a8.37,8.37,0,0,0,5.67,2.06,17,17,0,0,0,5.29-1.07c.41-.14.79-.26,1.05-.33a3.06,3.06,0,0,1,.78-.11c2.4,0,6.15,3.06,10.48,6.6,2.47,2,5.28,4.31,8.51,6.61,7.42,5.27,26.79,17.28,40,22.51l.07,0c.57.23,1,.43,1.4.6-1.29,1.57-4.18,5.13-2,9.31.77,1.45,2.74,3.88,7.34,3.88a19.29,19.29,0,0,0,4.24-.53c9.48-2.27,17.85-13.24,22-23.1,4.37-10.52,4.49-20.44.35-27.24a23.66,23.66,0,0,0-3.43-4.25c-1-1.07-1.2-1.31-1.24-1.51.46-1.26,3-5.37,5.95-10.1l.06-.11c3.37-5.42,5.4-8.7,6.29-13.74.86-4.88.19-8.92-2-12a11.42,11.42,0,0,0-3.82-3.41c-.31-1.73.84-6.15,1.35-8.1.16-.65.33-1.27.47-1.85a41.42,41.42,0,0,0,1.12-13.52,84.56,84.56,0,0,1,0-10c.7-11.47,3.2-18.9,5.84-26.76,2.77-8.24,5.64-16.77,6.54-29.88,1-15.26-1.22-27-5-46.51-2.63-13.58-4.21-21.78-8.52-29.23-5.76-10-18.09-23.23-44.11-29.85a6.19,6.19,0,0,0-1.48-.19Z"/><path class="cls-8" d="M421.6,32.18c-3.87,4.26-9.41,10.35-13,18.68-.43,1-.16.46-5,20.2-2.13,8.69-3.19,13-3.26,13.25-1.52,5.12-2.73,8.06-3.25,13.25-.35,3.45.06,3.46-.44,5.65-1.08,4.79-3.31,6-4.56,10.86-.29,1.12-.24,1.34-.65,6.29-.56,6.76-1,10.21-1.09,11.73a90.36,90.36,0,0,0,4.13,31.5c3.9,12.23,8.58,27.82,22.81,36.27a40.17,40.17,0,0,0,13.68,5c8.5,1.43,14.74-.41,26.06-3.91,12.24-3.78,21.89-6.75,30.84-15.2,1.07-1,3.75-4.29,9.13-10.86,11.63-14.24,10.93-14.25,16.72-21.07,10.69-12.59,15.83-15.78,20.42-26.28,3.61-8.28,2.45-11,1.52-12.16-2.44-3.15-8.6-3.25-12.82-1.3-4.93,2.27-6.16,6.85-7.17,6.51-2.17-.72,5.66-21.29,6.09-44.52.26-14.49.55-30.06-9.56-41.7-9.33-10.75-22.41-12.28-43.66-14.77-11.12-1.31-29.38-3.23-40.83,6.51A83.17,83.17,0,0,0,421.6,32.18Z"/><path class="cls-1" d="M469.82,248.21c-1.6,0-15.6-.15-16.2-4.56a1.19,1.19,0,0,1,.26-.87c.37-.41.93-.49,1.84-.49,1.18,0,3.08.15,5.47.35,3.47.28,7.79.63,11.6.63,1.17,0,2.23,0,3.17-.1,9.58-2.37,13.65-8.52,17.25-14l.53-.8c6.37-9.57,7.33-18.65,8.54-30.16.36-3.47.74-7.06,1.3-10.92.37-8,.94-19.45,1.48-28.53.87-14.42,1-14.42,2.17-14.42,1,0,1.1,1.05,1.16,2,2.79,47-2.63,78.09-16.11,92.39a29.62,29.62,0,0,1-22.41,9.45Z"/><path class="cls-1" d="M507.23,145.38c.06,0,.12.33.16,1.05,4.34,73.15-11.27,100.78-37.52,100.78h-.05c-5.94,0-14.85-1.08-15.21-3.7,0-.16.39-.22,1.11-.22,2.85,0,10.65,1,17.07,1,1.17,0,2.29,0,3.33-.1,10.51-2.58,14.71-9.59,18.46-15.21,8.47-12.72,7.6-25,10-41.48.95-20.18,2.14-42.1,2.66-42.1m0-2c-1.85,0-2.1,1.9-2.21,2.72-.09.66-.18,1.59-.29,2.85-.19,2.26-.41,5.56-.67,9.79-.54,9-1.11,20.5-1.49,28.55-.55,3.83-.92,7.4-1.29,10.86-1.19,11.36-2.14,20.35-8.37,29.7l-.53.81c-3.49,5.27-7.44,11.23-16.58,13.52-.89.06-1.9.09-3,.09-3.77,0-8.07-.35-11.52-.63-2.42-.2-4.33-.35-5.55-.35a3.16,3.16,0,0,0-2.59.84,2.06,2.06,0,0,0-.5,1.65c.66,4.88,12.24,5.42,17.18,5.43h.06A30.59,30.59,0,0,0,493,239.44c6.71-7.12,11.5-18.29,14.24-33.19,2.85-15.57,3.57-35.74,2.14-59.94-.05-.88-.18-2.93-2.16-2.93Z"/><path class="cls-1" d="M453.09,8.08c22.78-3.68,58.2.78,74.28,23.89,1.21,1.73,6,7.61,13.31,23.4,3.08,6.66,4.26,13.86,4.72,21.12.22,3.42,0,6.36-1.3,13.47-2.4,13.41-3.68,20.1-5.87,26.06-6.12,16.67-20.6,35.3-26.71,33-9.87-3.68,4.39-61,1.08-61.68-1.44-.29-5.72,10.28-7.38,22.15-1.88,13.46.19,24.42-.65,24.55-1.44.22-1.31-32.18-18.25-40.83-3.41-1.75-3.81-.64-19.33-2.39C450.1,88.91,441.65,88,436.8,85c-15.32-9.46-16.17-32.33-16.29-35.62,0-.87-.09-2.46-.06-4.35,0,0,0-1.45.1-2.86.06-1.07,1.14-15.73,10.39-24.93C433,15.15,438.6,10.41,453.09,8.08Z"/><path class="cls-1" d="M423.77,42.83c-23.4,14.29-30.49,27.93-31.93,38.66s2.38,22.47-.43,23.45c-2.13.75-7.06-5-9.34-11.29-5.38-14.93,4.81-31.19,14.12-46.05a105,105,0,0,1,23.45-26.49c4.23-3.38,14.47-11.55,17.16-9.34C438.56,13.21,437.65,19.53,423.77,42.83Z"/><circle cx="466.78" cy="117.87" r="5"/><line class="cls-9" x1="429.9" y1="138.75" x2="434.15" y2="139.74"/><path class="cls-5" d="M409.48,90.66a24.2,24.2,0,0,1,19.39,3.23"/><path class="cls-5" d="M461.23,97.73A24.2,24.2,0,0,1,480.62,101"/><circle cx="416.93" cy="112.32" r="5"/><path class="cls-9" d="M419.64,158.16a22.75,22.75,0,0,0,8.26,4.77c9.2,2.95,17.27-1.17,19.11-2.17"/><path class="cls-4" d="M531.83,64s-.19,35.91-5.9,52.85c-3.34-.24-26.63,17-13.86,41.41a10.72,10.72,0,0,0-1.3,2,3.13,3.13,0,0,1,0,1.3c-18.58,15.74-30.51,14.76-61.32,21.44-.05-2.39-.57-4.7-2.32-6-.44-1.47-5.48-3.09-15.42-1.73-2.45,0-9.93,1.14-11.3,2.38s-3.1,3.76-3.25,5.43-.88,7.22,1.52,10.86c1.18,1.13,4.51,3.7,8.47,3.7S446,194.1,446,194.1c2.07-1,3.64-2.33,3.75-8.69,17.81-3.69,41.54-5.86,55.56-16.71,2.05-1.26,7.43-5.93,7.43-5.93a1.86,1.86,0,0,0,1.3.22,3.05,3.05,0,0,0,1.36-1c1.38.88,7.6,1.25,11.56-2.33a40.34,40.34,0,0,0,8.1-9.23A10.08,10.08,0,0,0,543.56,140c.27-7-2.72-9.29-4.19-10-.7-.16-1.08-5.54-2.28-6.57-1.14-2.44-3.83-4-4-5.27-.35-3.28,2.43-12.52,3.8-24.46A169.37,169.37,0,0,0,537.7,64l-2-1.3V59.28l.37-.27a1.59,1.59,0,0,0,.56-1.85s-5.17-13.57-5.49-14.65C530.28,39.38,510.87,5,471.89,6a49.65,49.65,0,0,0-14.12,2.39l1.52,1.3c3.47-.63,5.44-1.6,13-1.3C513,14.16,524.39,32.65,531.83,64Z"/><path class="cls-10" d="M510.77,160.23a3.13,3.13,0,0,1,0,1.3c-18.58,15.74-30.51,14.76-61.32,21.44l.33,2.44c17.81-3.69,41.54-5.86,55.56-16.71,2.05-1.26,7.43-5.93,7.43-5.93a1.86,1.86,0,0,0,1.3.22C514.78,162.83,510.77,159.92,510.77,160.23Z"/><path class="cls-1" d="M510.87,174.88a142.6,142.6,0,0,0,19.76,40.62c5.23,7.34,11.15,14,13.25,25.41s-.69,21.75-1.3,21.72c-.86-.05-.54-20.41-1.31-20.42s.19,13.68-3.69,14.77c-2.24.63-5.32-3.15-10.86-11.73C516.94,230.09,512,222.52,510,215.5,505,198.48,508.3,183.19,510.87,174.88Z"/><path class="cls-8" d="M507.72,587.3a52.15,52.15,0,0,1-11.9-1.65c-2.85-.62-6.07-1.33-10.1-1.86a17,17,0,0,0-2.38-.19c-1.49,0-4.26-.13-12.42-.66-6.93-.45-13.87-1-19.55-1.48l-4.65-.4c-4-.33-6.59-.55-9.29-1-4.21-.66-6.68-1.2-9.54-1.84-3.42-.76-7.3-1.62-15.46-2.94-5.31-.87-8.72-1.32-11.72-1.72-4-.54-7.45-1-13.94-2.19-4.92-.91-12.82-2.48-22.51-4.81-.61-.15-1.33-.29-2.18-.46a82.3,82.3,0,0,1-12.84-3.45c-3.05-1.09-6.09-2.33-9-3.52-10.5-4.27-21.36-8.68-37.58-9-1.26,0-4.58-.29-8.1-.58-2.92-.24-6.24-.51-7.19-.53-14-.29-19.23-3.41-25.9-7.36a82,82,0,0,0-23.39-9.88c-7.4-2-11.42-3-14.64-3a13.11,13.11,0,0,0-2,.15c-4.85.81-8.59,3.06-12.2,5.25-3.93,2.37-7.64,4.61-12.2,4.61h0a13.63,13.63,0,0,1-3.57-.47c-2.14-.57-7.19-2.34-8-6.54a7.64,7.64,0,0,1,1-5c.07-.13.15-.3.22-.46a5.67,5.67,0,0,1-3.12-2.4c-3.3-5.52,4.65-15,8.79-18.49l.73-.61a9.32,9.32,0,0,0,4.09-9.35c0-.72-.06-1.46,0-2.21.4-9.52,10.52-18.64,19.66-21.62a16,16,0,0,1,5.27-.88c1.31,0,2.69.13,4.44.3,2.66.26,6.3.61,12.15.76l2.34,0c1.11,0,1.91,0,2.6-.05l1.58,0c.65,0,1.27,0,2,.08a67.13,67.13,0,0,1,18.18,4.31c9.29,3.7,20.86,11.2,32,18.45,6.9,4.47,13.41,8.7,18.55,11.44,7.48,4,21.51,6.05,51.73,9.77,11.72,1.44,26.3,3.24,43.69,3.24a247.59,247.59,0,0,0,28.25-1.61,111,111,0,0,0,15.08-2.55,40.94,40.94,0,0,1,10.61-1.38c.72,0,1.44,0,2.17,0a122.78,122.78,0,0,1,51.29,11.68c16.63,8.11,26,18.53,26.49,29.34.5,12.09-11.9,26.73-26.53,31.33A29.87,29.87,0,0,1,513,587l-.35,0A39.8,39.8,0,0,1,507.72,587.3Z"/><path class="cls-1" d="M222,473.77c3,0,6.75.82,16.51,1.06l2.42,0c2,0,3.05-.08,4.18-.08.53,0,1.07,0,1.74.07a64.41,64.41,0,0,1,17.29,4.1c14.82,5.91,36.87,22.59,50.28,29.76,8.09,4.32,23,6.43,52.78,10.1,12.55,1.54,27,3.26,44.06,3.26a251.86,251.86,0,0,0,28.59-1.63c17.3-2,15.43-3.7,25.42-3.91.7,0,1.39,0,2.1,0,34.4,0,73.93,17.61,74.78,38.14.46,11-11.51,24.29-24.43,28.35a29.63,29.63,0,0,1-5.46,1,37,37,0,0,1-4.53.28c-7,0-11.86-2.2-21.61-3.48-3-.4-.59.07-15-.87-10.17-.67-17.19-1.28-19.49-1.48-6.82-.6-10.24-.8-13.74-1.35-9.1-1.41-9.95-2.33-25-4.77-12.17-2-14.15-1.79-25.6-3.9-2.83-.52-11.29-2.11-22.35-4.78a98.79,98.79,0,0,1-14.71-3.81c-13.67-4.91-26.08-12.28-47.56-12.71-2.29,0-13.17-1.06-15.29-1.11-23.92-.5-20.42-9.57-48.57-17.13-7.33-2-11.75-3.13-15.42-3.13a15.73,15.73,0,0,0-2.5.19c-10.74,1.78-16.39,9.82-23.91,9.82a10.73,10.73,0,0,1-2.8-.37c-.55-.14-5.3-1.4-5.87-4.23-.46-2.31,2.16-4.13,1.31-6.19-.7-1.69-2.7-1.13-3.59-2.61-1.84-3.08,3.57-10.8,8.15-14.66a15.69,15.69,0,0,0,4.56-4.89c2-3.65,1.19-6.81,1.3-9.44.35-8.34,9.73-16.34,17.59-18.9a13,13,0,0,1,4.34-.73m0-6v0a18.92,18.92,0,0,0-6.2,1c-10.32,3.36-21.27,13.39-21.72,24.35,0,.86,0,1.66,0,2.44.07,2,.08,3.12-.62,4.41a7.93,7.93,0,0,1-2.35,2.5l-.79.64c-4.21,3.55-14.12,14.48-9.43,22.33a7.87,7.87,0,0,0,1.88,2.15,9.25,9.25,0,0,0-.33,4.75c.83,4.13,4.55,7.36,10.21,8.85a17,17,0,0,0,4.34.57c5.4,0,9.64-2.56,13.75-5,3.53-2.13,6.86-4.15,11.14-4.86a9.21,9.21,0,0,1,1.52-.11c2.84,0,6.91,1.05,13.86,2.92a79.06,79.06,0,0,1,22.64,9.57c6.77,4,12.62,7.46,27.36,7.77.86,0,4.27.3,7,.52,4.31.35,7,.56,8.27.59,15.67.31,26.27,4.62,36.52,8.79,3,1.2,6,2.45,9.15,3.56a83.61,83.61,0,0,0,13.27,3.57c.83.17,1.54.31,2.06.43,7.62,1.84,15.67,3.56,22.66,4.85,6.57,1.21,10,1.67,14.09,2.21,3,.4,6.37.85,11.64,1.71,8.07,1.31,11.91,2.16,15.29,2.91,2.92.65,5.43,1.2,9.73,1.87,2.8.44,5.45.66,9.47,1l4.66.4c5.83.51,12.62,1,19.63,1.48,8.22.54,11,.62,12.52.67a14.32,14.32,0,0,1,2.07.16c3.92.52,6.93,1.18,9.85,1.82a55.43,55.43,0,0,0,12.55,1.72A43.69,43.69,0,0,0,513,590l.33,0a32.93,32.93,0,0,0,6.2-1.22,45.69,45.69,0,0,0,20-13.33c5.88-6.72,9-14.17,8.68-21-.5-12-10.5-23.3-28.18-31.92a126,126,0,0,0-52.6-12c-.76,0-1.49,0-2.23,0A44.23,44.23,0,0,0,453.88,512a105.71,105.71,0,0,1-14.72,2.48,241.81,241.81,0,0,1-27.91,1.6c-17.21,0-31.69-1.79-43.32-3.22-29.17-3.59-43.68-5.69-50.69-9.43-5-2.69-11.49-6.88-18.33-11.32-11.3-7.33-23-14.91-32.55-18.72a70.05,70.05,0,0,0-19.08-4.52c-.77-.05-1.46-.08-2.18-.08l-1.66,0c-.69,0-1.46.05-2.52.05l-2.27,0c-5.74-.14-9.32-.49-11.93-.74-1.83-.18-3.28-.32-4.73-.32Z"/><path class="cls-5" d="M422.41,206.21c9.56,1.39,33.29,3.41,55.66-10.48a74.16,74.16,0,0,0,15-12.33"/><path class="cls-5" d="M429.17,245.14A148,148,0,0,1,434,281.52"/><path class="cls-6" d="M461.13,220.71c20.92-9.2,32.91-30.06,30.41-32.8s-17.39,17.65-42.9,18.38c-10.76.31-19.62-2.53-22.55,2.08-2.28,3.58.08,10.11,4,13.64C439.26,230.32,457.46,222.32,461.13,220.71Z"/><path class="cls-11" d="M359.73,481.58a70.24,70.24,0,0,1-3.1,33.12"/><path class="cls-5" d="M185.68,529a56.76,56.76,0,0,1,22.15-15.36,45.07,45.07,0,0,1,23.72-2.09"/><path class="cls-5" d="M233.51,497.42A35,35,0,0,0,210,504.83a37.41,37.41,0,0,0-8.61,9.87"/><path class="cls-5" d="M242.41,481.56c-15.28-.43-24.36,3.72-29.91,7.8-2.79,2.05-4.16,3.7-10.81,9.74-7,6.39-13,11.37-17.05,14.66"/><path class="cls-5" d="M195.82,483.24c-5.77,5-8.24,13.44-14.41,20.25-4,4.4-11.22,6.11-14.42,10.27"/><path class="cls-5" d="M515,461a38,38,0,0,1-25.19,1.25"/><path class="cls-5" d="M556.5,515.36A37.73,37.73,0,0,1,547,513a38.6,38.6,0,0,1-13.2-8.66"/><path class="cls-5" d="M542.47,316.82a111.26,111.26,0,0,1,12.7,25.41A114.77,114.77,0,0,1,560.06,397"/><path class="cls-5" d="M447.41,406.34a106.12,106.12,0,0,0-18.33,43.46,105,105,0,0,0-.49,33"/></g></svg>